<?xml version="1.0" encoding="UTF-8"?>
<svg id="Layer_1" data-name="Layer 1" xmlns="http://www.w3.org/2000/svg" viewBox="0 0 32 32">
  <defs>
    <style>
      .cls-1 {
        fill: #fff;
      }

      .cls-2 {
        fill-rule: evenodd;
      }
    </style>
  </defs>
  <rect class="cls-1" x="-.3619632" y="-.3619632" width="32.7239264" height="32.7239264"/>
  <g>
    <path class="cls-2" d="M6.3732937,10.9844366h-.0251975c-.10079,0-.1839418.0831518-.1839418.1839418v6.1481904h-.0025199c0,.4258376-.1814219.8340375-.5014301,1.1338876s-.755925.4711936-1.2119998.4711936-.8894718-.1688236-1.2119998-.4711936c-.2796922-.2620539-.453555-.6072599-.493871-.9726237-.010079-.0932311-.090711-.1612639-.1839418-.1612639h-.0251975c-.110869,0-.1965405.0957502-.1839418.2040999.050395.4485152.262054.8718337.6072598,1.1918415.3956008.3704036.9323075.5971811,1.4916921.5971811s1.0960915-.2267775,1.4916922-.5971811.6173388-.8718337.6173388-1.3959414v-6.1481904c-.0000004-.10079-.0806323-.1839418-.1839418-.1839418Z"/>
    <path class="cls-2" d="M10.0596879,11.9948566l-2.0460371,7.1737286c-.0251975.0831514-.10079.1436261-.1889813.1436261h0c-.1310269,0-.2242576-.1234676-.1889813-.2494551l2.2602158-7.9346931c.0251975-.0831518.10079-.1436257.1889813-.1436257h.0579539c.0881913,0,.1637838.0579543.1889813.1436257l2.2602154,7.9346931c.0352763.1259875-.0579539.2494551-.1889813.2494551h0c-.0881913,0-.1637838-.0579539-.1889813-.1436261l-2.0460374-7.173729c-.0151171-.0529145-.0932295-.0529145-.1083482.0000004Z"/>
    <path class="cls-2" d="M20.0051413,10.9844366c-.10079,0-.1839415.0831518-.1839415.1839418v7.9598914c0,.10079.0831514.1839415.1839415.1839415h3.8678165c.10079,0,.1839415-.0831514.1839415-.1839415v-.0377963c0-.10079-.0831514-.1839415-.1839415-.1839415h-3.4747346c-.10079,0-.1839415-.0831514-.1839415-.1839415v-3.2328407c0-.10079.0831514-.1839415.1839415-.1839415h3.4722154c.10079,0,.1839415-.0831514.1839415-.1839415h0c0-.10079-.0831514-.1839415-.1839415-.1839415h-3.4722154c-.10079,0-.1839415-.0831514-.1839415-.1839415v-3.2152025c0-.10079.0831514-.1839418.1839415-.1839418h3.4722154c.10079,0,.1839415-.0831518.1839415-.1839418h0c0-.10079-.0831514-.1839418-.1839415-.1839418h-3.8652974v-.0025195Z"/>
    <path class="cls-2" d="M14.3180657,10.9844366h.0856714c.0755925,0,.1461452.0453556.1789024.1133888l3.275676,7.0930971c.0251975.0529149.1058298.0352763.1058298-.0226776v-6.9872677c0-.1083493.0881913-.1965406.1965402-.1965406h.0025191c.1083489,0,.1965402.0881913.1965402.1965406v7.9346931c0,.1083489-.0881913.1965402-.1965402.1965402h-.0907104c-.0755925,0-.1461452-.0453552-.1789016-.1133888l-3.2706369-7.085537c-.0251975-.0529149-.1058298-.0352763-.1058298.0226776v6.9771881c0,.1083489-.0881913.1965402-.1965402.1965402h-.0025199c-.1083489,0-.1965402-.0881913-.1965402-.1965402v-7.9321732c0-.1083493.0881913-.1965406.1965402-.1965406Z"/>
    <path d="M17.2485356,20.3150716c.0529141,0,.0957502.0151187.1259875.0453552.0327564.0302373.0478759.0705527.0478759.1209477,0,.0277174-.0050398.0529149-.0176386.0781124-.0100796.0251975-.0251975.0453552-.0478759.0629938-.0201577.0176386-.0478759.0251975-.0781116.0277174l-.0075589-.0125988c.0251975,0,.050395.0050398.0730734.0125988s.0428361.0176386.0579539.0327564c.0176386.0151187.0302373.0327564.0377963.0554348.0100796.0226776.0151179.0478751.0151179.0755925,0,.0327564-.0050398.0579539-.0151179.0831514-.0100796.0226784-.0251975.0428361-.0428361.0579539s-.0403154.0277166-.0629938.0352771c-.0251975.0075589-.050395.0100796-.0781116.0100796h-.2721327c-.0050398,0-.0100796-.0025191-.0125988-.0050398-.0050398-.0050398-.0050398-.0075589-.0050398-.0125988v-.6500952c0-.0050398.0025191-.0100788.0050398-.0125988.0050398-.0050398.0075589-.0050398.0125988-.0050398h.2645722ZM17.2434958,20.3553877h-.2494559l.0100796-.0176386v.3124489l-.0100796-.0176386h.2494559c.0377963,0,.0705527-.0125988.0982709-.0377963.0251975-.0251975.0403154-.0629938.0403154-.1108689,0-.0377963-.0125988-.0680336-.0352771-.0907112-.0277166-.0277166-.0604731-.0377955-.1033091-.0377955ZM17.2485356,20.6728764h-.2494559l.0050398-.0050398v.3074098l-.0050398-.0075589h.2494559c.0478759,0,.0856721-.0125988.1184286-.0352771s.0478759-.0604739.0478759-.1133888c0-.0352763-.0075589-.0629938-.0226784-.0831514-.0151179-.0226776-.0352771-.0377963-.0579539-.0478751-.025199-.0100796-.0529157-.0151187-.0856721-.0151187ZM18.0800531,20.3100318c.0075589,0,.0125988.0025199.0151179.0075589.0025191.0050398.0050398.0075589.0050398.0125988v.0075589c0,.0025199-.0025191.0050398-.0025191.0050398l-.2343365.3174887.0100796-.0277174v.352765c0,.0050398-.0025191.0100796-.0050398.0125988-.0050398.0050398-.0100796.0050398-.0151179.0050398-.0075589,0-.0125988-.0025191-.0151179-.0050398-.0025191-.0050398-.0050398-.0075589-.0050398-.0125988v-.3477252l.0050398.0201577-.2292966-.3174887c-.0025191-.0025199-.0025191-.0050398-.0025191-.0050398v-.0075589c0-.0050398.0025191-.0100788.0075589-.0125988.0050398-.0050398.0100796-.0050398.0125988-.0050398.0075589,0,.0125988.0025199.0176386.0100788l.2192186.2973302-.0100796-.0025199.2166979-.2973302c-.0025222-.0025184.0025176-.0075582.0100765-.0075582ZM18.6999111,20.3150716c.0025191,0,.0075589,0,.0100796.0025199.0025191.0025199.0050398.0025199.0100796.0075589l.2822123.4207986h-.0201592l.2822123-.4207986c.0050398-.0075589.0125988-.0100788.0176386-.0100788s.0100796.0025199.0125988.0075589c.0025191.0025199.0050398.0075589.0050398.0125988v.6500952c0,.0050398-.0025191.0100796-.0075589.0125988-.0050398.0050398-.0075589.0050398-.0125988.0050398s-.0100796-.0025191-.0151179-.0050398c-.0050398-.0050398-.0050398-.0075589-.0050398-.0125988v-.60474h.0100796l-.2645753.4006409c-.0025191.0025199-.0025191.0050398-.0050398.0050398-.0025191.0025199-.0050398.0025199-.0075589.0025199s-.0075589,0-.0100796-.0025199c-.0025191-.0025199-.0050398-.0025199-.0050398-.0050398l-.2721327-.410719h.0151179v.6148197c0,.0050398-.0025191.0100796-.0050398.0125988-.0050398.0050398-.0075589.0050398-.0125988.0050398s-.0100796-.0025191-.0151179-.0050398c-.0025191-.0050398-.0050398-.0075589-.0050398-.0125988v-.6500952c0-.0050398.0025191-.0100788.0050398-.0125988.0025207-.0050406.0050398-.0075605.0125988-.0075605ZM19.8186808,20.3654666l-.2494559.6274184c-.0025191.0050398-.0025191.0075589-.0075589.0100796-.0025191.0025191-.0075589.0025191-.0100796.0025191-.0075589,0-.0125988-.0025191-.0151179-.0050398-.0025191-.0025191-.0050398-.0075589-.0050398-.0125988v-.0100796l.2645738-.6526151c.0025191-.0050398.0050398-.0075589.0075589-.0100788s.0075589-.0025199.0125988-.0025199.0100796.0025199.0125988.0050398.0050398.0050398.0075589.0100788l.2645738.6526159v.0075589c0,.0050398-.0025191.0100796-.0050398.0125988s-.0100796.0050398-.0151179.0050398c-.0050398,0-.0100796,0-.0125988-.0025191s-.0050398-.0050398-.0075589-.0100796l-.2570148-.6349773.0151194.0075589ZM19.6372584,20.7913042l.0125988-.0403162h.3200086l.0100796.0403162h-.3426869ZM20.8316206,20.3150716c.0050398,0,.0100796.0025199.0125988.0050398s.0050398.0075589.0050398.0125988v.6500952c0,.0075589-.0025191.0125988-.0075589.0176386-.0050398.0025191-.0075589.0050398-.0125988.0050398-.0025191,0-.0050398,0-.0100796-.0025191-.0025191-.0025191-.0050398-.0025191-.0075589-.0050398l-.4560742-.6248977.0125988-.0075589v.6223786c0,.0050398-.0025191.0075589-.0050398.0125988-.0025191.0025191-.0075589.0050398-.0125988.0050398s-.0100796-.0025191-.0125988-.0050398c-.0025191-.0025191-.0050398-.0075589-.0050398-.0125988v-.6526151c0-.0075589.0025191-.0125988.0050398-.0151187.0050398-.0025199.0075589-.0050398.0125988-.0050398.0025191,0,.0050398,0,.0075589.0025199.0025191,0,.0050398.0025199.0075589.0050398l.4560742.6198587-.0075589.0201577v-.6274176c0-.0050398.0025191-.0100788.0050398-.0125988.0050383-.0050413.0100781-.0075612.0125988-.0075612ZM21.7563677,20.6602777c0,.0529149-.0075589.10079-.0251975.1436261-.0151179.0428361-.0377963.0806323-.0680336.1133888s-.0655129.0554348-.1033091.0730734c-.0403154.0176386-.0831514.0251975-.1310273.0251975s-.0907104-.0075589-.1310273-.0251975c-.0403154-.0176386-.0755925-.0403154-.1033091-.0730734-.0302373-.0327564-.0529141-.0680336-.0680336-.1133888-.0151179-.0428361-.0226784-.0907112-.0226784-.1436261s.0075589-.10079.0226784-.1436261c.0176386-.0428361.0403154-.0806323.0680336-.1133888.0302373-.0327564.0655129-.0554348.1033091-.0730726.0403154-.0176386.0831514-.0251975.1310273-.0251975s.0907104.0075589.1310273.0251975c.0403154.0176386.0755925.0403162.1033091.0730726.0302373.0327564.0529141.0680336.0680336.1133888.0151194.0428361.0251975.0907112.0251975.1436261ZM21.7135332,20.6602777c0-.0629938-.0125988-.1184286-.0377963-.1663037s-.0579539-.0831514-.10079-.1108689c-.0428361-.0251975-.0932311-.0403162-.1486659-.0403162s-.1058298.0125988-.1486659.0403162c-.0428361.0251975-.0781116.0629938-.1033091.1108689s-.0352771.1033099-.0352771.1663037.0125988.1184286.0352771.1663037c.0251975.0478751.0579539.0831522.1033091.1108689.0428361.0251975.0932311.0403154.1486659.0403154s.1058298-.0125988.1486659-.0403154c.0428361-.0251975.0781116-.0629938.10079-.1108689.0251975-.0478759.0377963-.1033099.0377963-.1663037ZM22.4896159,20.3150716c.0050398,0,.0100796.0025199.0125988.0050398.0050398.0050398.0050398.0075589.0050398.0125988v.4258376c0,.0478751-.0125988.0881913-.0352771.1285074-.0226784.0377963-.0529141.0680336-.0907104.0907104-.0377963.0226784-.0806323.0352771-.1259875.0352771s-.0881913-.0125988-.1285066-.0352771c-.0377963-.0226784-.0680336-.0529141-.0907104-.0907104-.0226784-.0377963-.0352771-.0806323-.0352771-.1285074v-.4258376c0-.0050398.0025191-.0100788.0050398-.0125988.0050398-.0050398.0100796-.0050398.0151179-.0050398.0050398,0,.0100796.0025199.0151179.0050398.0050398.0050398.0050398.0075589.0050398.0125988v.4258376c0,.0403162.0100796.0755925.0277166.1083489.0201577.0327572.0453552.0579547.0781116.0781124s.0680336.0277166.1083489.0277166.0755925-.0100796.1083489-.0277166c.0327564-.0201577.0579539-.0453552.0755925-.0781124.0201577-.0327564.0302373-.0680336.0302373-.1083489v-.4258376c0-.0050398.0025191-.0100788.0050398-.0125988.0050398-.0025199.0075605-.0050398.0151194-.0050398ZM22.9759274,21.0155618c-.050395,0-.0957502-.0075589-.1310273-.0251975-.0377963-.0176386-.0730734-.0428361-.1058298-.0781116l-.0050398-.0050398c-.0025191-.0025191-.0025191-.0050398-.0025191-.0100796s.0025191-.0100796.0075589-.0151187c.0050398-.0050398.0100796-.0075589.0151179-.0075589.0050398,0,.0125988.0025199.0176386.0100788.0251975.0302373.0579539.0529141.0907104.0680336.0352771.0151179.0730734.0226784.1108696.0226784.0327564,0,.0629938-.0050398.0907104-.0151179.0251975-.0100796.0478759-.0277166.0629938-.0453552.0151179-.0201577.0226784-.0428361.0226784-.0705527,0-.0327564-.0100796-.0604739-.0277166-.0806323-.0176386-.0201577-.0403154-.0377963-.0680336-.050395-.0277166-.0125988-.0579539-.0251975-.0881913-.0352763-.0251975-.0100788-.0478759-.0176386-.0730734-.0277174s-.0453552-.0226776-.0629938-.0352763c-.0201577-.0151187-.0352771-.0327564-.0453552-.0529149-.0100796-.0226776-.0176386-.0478751-.0176386-.0806323,0-.0327564.0075589-.0604739.0251975-.0856714s.0428361-.0478751.0755925-.0629938.0705527-.0226776.1159079-.0226776c.0377963,0,.0730734.0075589.1083489.0201577.0352771.0125988.0629938.0327564.0831514.0604739.0075589.0100788.0100796.0151187.0100796.0201577,0,.0050398-.0025191.0100788-.0075589.0125988-.0050398.0050398-.0100796.0075589-.0151179.0075589-.0050398,0-.0100796-.0025199-.0125988-.0050398-.0125988-.0151187-.0251975-.0302373-.0428361-.0403162-.0176386-.0125988-.0352771-.0201577-.0554348-.0277174-.0201577-.0075589-.0428361-.0100788-.0680336-.0100788-.0327564,0-.0604746.0050398-.0881913.0151187-.0251975.0100788-.0478759.0251975-.0629938.0453552s-.0226784.0428361-.0226784.0705527c0,.0302373.0075589.0554348.0251975.0755925s.0403154.0352763.0680336.0478751c.0277166.0125988.0554348.0251975.0831514.0352763.0251975.0075589.050395.0176386.0730734.0277174.0251975.0100788.0478759.0226776.0680336.0377963s.0352771.0352763.0478759.0579539.0176386.0529149.0176386.0856714c0,.0302373-.0100796.0579547-.0277166.0831522-.0176386.0251975-.0403154.0453552-.0730734.0629938-.0352756.0126003-.0730718.0201592-.1159079.0226784ZM23.4546799,20.3150716c.0050398,0,.0100796.0025199.0151179.0050398.0050398.0050398.0050398.0100788.0050398.0151187v.6475753c0,.0050398-.0025191.0100796-.0075589.0151179-.0050398.0050398-.0075589.0050398-.0125988.0050398-.0075589,0-.0125988-.0025191-.0151179-.0050398-.0025191-.0050398-.0050398-.0100796-.0050398-.0151179v-.6475761c0-.0050398.0025191-.0100788.0050398-.0151187.0050383-.0025191.0100781-.005039.0151179-.005039ZM23.9258735,20.3150716c.0050398,0,.0100796.0025199.0151179.0050398.0050398.0050398.0050398.0100788.0050398.0151187v.6475753c0,.0050398-.0025191.0100796-.0075589.0151179-.0050398.0050398-.0075589.0050398-.0125988.0050398-.0075589,0-.0125988-.0025191-.0151179-.0050398-.0025191-.0050398-.0050398-.0100796-.0050398-.0151179v-.6475761c0-.0050398.0025191-.0100788.0050398-.0151187.0050383-.0025191.0100781-.005039.0151179-.005039ZM23.4496401,20.6300403h.4787525l-.0025191.0403162h-.4812717l.0050383-.0403162Z"/>
    <rect x="2.3416933" y="20.6300403" width="14.0904426" height=".0403162"/>
    <g id="_Layer_" data-name="&amp;lt;Layer&amp;gt;">
      <path d="M29.2652232,11.1683785v3.5805651c0,.10079-.083153.1839415-.183943.1839415h-3.0791335c-.10079,0-.1839415-.0831514-.1839415-.1839415v-3.5805651c0-.10079-.0831514-.1839418-.1839415-.1839418h-.0251975c-.10079,0-.1839415.0831518-.1839415.1839418v7.9573707c0,.10079.0831514.1839415.1839415.1839415h.0251975c.10079,0,.1839415-.0831514.1839415-.1839415v-3.6385191c0-.10079.0831514-.1839415.1839415-.1839415h3.0791335c.10079,0,.183943.0831514.183943.1839415v3.6385191c0,.10079.083153.1839415.183943.1839415h.0251975c.10079,0,.183943-.0831514.183943-.1839415v-7.9573707c0-.10079-.083153-.1839418-.183943-.1839418h-.0251975c-.10079,0-.183943.0831518-.183943.1839418Z"/>
    </g>
  </g>
</svg>