<?xml version="1.0" encoding="UTF-8"?>
<svg xmlns="http://www.w3.org/2000/svg" viewBox="0 0 32 32">
  <defs>
    <style>
      .cls-1 {
        fill: #fff;
        fill-rule: evenodd;
      }

      .cls-2 {
        fill: #0f0f0f;
      }
    </style>
  </defs>
  <g id="Layer_1" data-name="Layer 1">
    <rect class="cls-2" x="-.3527607" y="-.3527607" width="32.7055215" height="32.7055215"/>
  </g>
  <g id="Isolation_Mode" data-name="Isolation Mode">
    <path class="cls-1" d="M20.9591446,3.1779141h-.0776155c-.3104621,0-.5665936.2561315-.5665936.5665936v18.9381893h-.007762c0,1.311702-.5588316,2.5690745-1.5445486,3.4926988-.985717.9236243-2.3284659,1.4514114-3.7333069,1.4514114s-2.7398281-.520025-3.7333069-1.4514114c-.8615323-.807201-1.3970795-1.8705347-1.5212644-2.9959599-.0310462-.2871784-.2794159-.4967389-.5665935-.4967389h-.0776155c-.3415083,0-.6054011.2949381-.5665934.6286863.1552311,1.3815555.8072014,2.6854978,1.8705342,3.6712136,1.2185639,1.1409492,2.8717743,1.839489,4.5948394,1.839489s3.3762761-.6985398,4.5948397-1.839489,1.9015805-2.6854978,1.9015805-4.2998999V3.7445077c-.0000012-.3104621-.2483706-.5665936-.5665936-.5665936Z"/>
  </g>
</svg>