<?xml version="1.0" encoding="UTF-8"?>
<svg id="Layer_1" data-name="Layer 1" xmlns="http://www.w3.org/2000/svg" viewBox="0 0 16 16">
  <defs>
    <style>
      .cls-1 {
        fill: #fff;
      }

      .cls-2 {
        fill-rule: evenodd;
      }
    </style>
  </defs>
  <rect class="cls-1" x="-.2392638" y="-.2409974" width="16.4785276" height="16.4819947"/>
  <g>
    <path class="cls-2" d="M3.1866469,5.4922183h-.0125988c-.050395,0-.0919709.0415759-.0919709.0919709v3.0740952h-.00126c0,.2129188-.090711.4170187-.2507151.5669438s-.3779625.2355968-.6059999.2355968-.4447359-.0844118-.6059999-.2355968c-.1398461-.1310269-.2267775-.30363-.2469355-.4863119-.0050395-.0466155-.0453555-.0806319-.0919709-.0806319h-.0125988c-.0554345,0-.0982703.0478751-.0919709.10205.0251975.2242576.131027.4359169.3036299.5959208.1978004.1852018.4661537.2985905.7458461.2985905s.5480458-.1133888.7458461-.2985905.3086694-.4359169.3086694-.6979707v-3.0740952c-.0000002-.050395-.0403162-.0919709-.0919709-.0919709Z"/>
    <path class="cls-2" d="M5.029844,5.9974283l-1.0230185,3.5868643c-.0125988.0415757-.050395.071813-.0944906.071813h0c-.0655135,0-.1121288-.0617338-.0944906-.1247276l1.1301079-3.9673466c.0125988-.0415759.050395-.0718128.0944906-.0718128h.028977c.0440956,0,.0818919.0289772.0944906.0718128l1.1301077,3.9673466c.0176382.0629938-.028977.1247276-.0944906.1247276h0c-.0440956,0-.0818919-.028977-.0944906-.071813l-1.0230187-3.5868645c-.0075586-.0264573-.0466148-.0264573-.0541741.0000002Z"/>
    <path class="cls-2" d="M10.0025707,5.4922183c-.050395,0-.0919707.0415759-.0919707.0919709v3.9799457c0,.050395.0415757.0919707.0919707.0919707h1.9339083c.050395,0,.0919707-.0415757.0919707-.0919707v-.0188981c0-.050395-.0415757-.0919707-.0919707-.0919707h-1.7373673c-.050395,0-.0919707-.0415757-.0919707-.0919707v-1.6164203c0-.050395.0415757-.0919707.0919707-.0919707h1.7361077c.050395,0,.0919707-.0415757.0919707-.0919707h0c0-.050395-.0415757-.0919707-.0919707-.0919707h-1.7361077c-.050395,0-.0919707-.0415757-.0919707-.0919707v-1.6076013c0-.050395.0415757-.0919709.0919707-.0919709h1.7361077c.050395,0,.0919707-.0415759.0919707-.0919709h0c0-.050395-.0415757-.0919709-.0919707-.0919709h-1.9326487v-.0012598Z"/>
    <path class="cls-2" d="M7.1590328,5.4922183h.0428357c.0377963,0,.0730726.0226778.0894512.0566944l1.637838,3.5465485c.0125988.0264575.0529149.0176382.0529149-.0113388v-3.4936338c0-.0541747.0440956-.0982703.0982701-.0982703h.0012596c.0541745,0,.0982701.0440956.0982701.0982703v3.9673466c0,.0541745-.0440956.0982701-.0982701.0982701h-.0453552c-.0377963,0-.0730726-.0226776-.0894508-.0566944l-1.6353185-3.5427685c-.0125988-.0264575-.0529149-.0176382-.0529149.0113388v3.488594c0,.0541745-.0440956.0982701-.0982701.0982701h-.00126c-.0541745,0-.0982701-.0440956-.0982701-.0982701v-3.9660866c0-.0541747.0440956-.0982703.0982701-.0982703Z"/>
    <path d="M8.6242678,10.1575358c.0264571,0,.0478751.0075593.0629938.0226776.0163782.0151187.0239379.0352763.0239379.0604739,0,.0138587-.0025199.0264575-.0088193.0390562-.0050398.0125988-.0125988.0226776-.0239379.0314969-.0100788.0088193-.0239379.0125988-.0390558.0138587l-.0037795-.0062994c.0125988,0,.0251975.0025199.0365367.0062994s.021418.0088193.028977.0163782c.0088193.0075593.0151187.0163782.0188981.0277174.0050398.0113388.0075589.0239375.0075589.0377963,0,.0163782-.0025199.028977-.0075589.0415757-.0050398.0113392-.0125988.021418-.021418.028977s-.0201577.0138583-.0314969.0176386c-.0125988.0037795-.0251975.0050398-.0390558.0050398h-.1360664c-.0025199,0-.0050398-.0012596-.0062994-.0025199-.0025199-.0025199-.0025199-.0037795-.0025199-.0062994v-.3250476c0-.0025199.0012596-.0050394.0025199-.0062994.0025199-.0025199.0037795-.0025199.0062994-.0025199h.1322861ZM8.6217479,10.1776939h-.1247279l.0050398-.0088193v.1562244l-.0050398-.0088193h.1247279c.0188981,0,.0352763-.0062994.0491354-.0188981.0125988-.0125988.0201577-.0314969.0201577-.0554344,0-.0188981-.0062994-.0340168-.0176386-.0453556-.0138583-.0138583-.0302365-.0188977-.0516546-.0188977ZM8.6242678,10.3364382h-.1247279l.0025199-.0025199v.1537049l-.0025199-.0037795h.1247279c.0239379,0,.0428361-.0062994.0592143-.0176386s.0239379-.0302369.0239379-.0566944c0-.0176382-.0037795-.0314969-.0113392-.0415757-.0075589-.0113388-.0176386-.0188981-.028977-.0239375-.0125995-.0050398-.0264578-.0075593-.0428361-.0075593ZM9.0400266,10.1550159c.0037795,0,.0062994.00126.0075589.0037795.0012596.0025199.0025199.0037795.0025199.0062994v.0037795c0,.00126-.0012596.0025199-.0012596.0025199l-.1171682.1587443.0050398-.0138587v.1763825c0,.0025199-.0012596.0050398-.0025199.0062994-.0025199.0025199-.0050398.0025199-.0075589.0025199-.0037795,0-.0062994-.0012596-.0075589-.0025199-.0012596-.0025199-.0025199-.0037795-.0025199-.0062994v-.1738626l.0025199.0100788-.1146483-.1587443c-.0012596-.00126-.0012596-.0025199-.0012596-.0025199v-.0037795c0-.0025199.0012596-.0050394.0037795-.0062994.0025199-.0025199.0050398-.0025199.0062994-.0025199.0037795,0,.0062994.00126.0088193.0050394l.1096093.1486651-.0050398-.00126.1083489-.1486651c-.0012611-.0012592.0012588-.0037791.0050383-.0037791ZM9.3499555,10.1575358c.0012596,0,.0037795,0,.0050398.00126.0012596.00126.0025199.00126.0050398.0037795l.1411062.2103993h-.0100796l.1411062-.2103993c.0025199-.0037795.0062994-.0050394.0088193-.0050394s.0050398.00126.0062994.0037795c.0012596.00126.0025199.0037795.0025199.0062994v.3250476c0,.0025199-.0012596.0050398-.0037795.0062994-.0025199.0025199-.0037795.0025199-.0062994.0025199s-.0050398-.0012596-.0075589-.0025199c-.0025199-.0025199-.0025199-.0037795-.0025199-.0062994v-.30237h.0050398l-.1322877.2003204c-.0012596.00126-.0012596.0025199-.0025199.0025199-.0012596.00126-.0025199.00126-.0037795.00126s-.0037795,0-.0050398-.00126c-.0012596-.00126-.0025199-.00126-.0025199-.0025199l-.1360664-.2053595h.0075589v.3074098c0,.0025199-.0012596.0050398-.0025199.0062994-.0025199.0025199-.0037795.0025199-.0062994.0025199s-.0050398-.0012596-.0075589-.0025199c-.0012596-.0025199-.0025199-.0037795-.0025199-.0062994v-.3250476c0-.0025199.0012596-.0050394.0025199-.0062994.0012603-.0025203.0025199-.0037802.0062994-.0037802ZM9.9093404,10.1827333l-.1247279.3137092c-.0012596.0025199-.0012596.0037795-.0037795.0050398-.0012596.0012596-.0037795.0012596-.0050398.0012596-.0037795,0-.0062994-.0012596-.0075589-.0025199-.0012596-.0012596-.0025199-.0037795-.0025199-.0062994v-.0050398l.1322869-.3263076c.0012596-.0025199.0025199-.0037795.0037795-.0050394s.0037795-.00126.0062994-.00126.0050398.00126.0062994.0025199.0025199.0025199.0037795.0050394l.1322869.326308v.0037795c0,.0025199-.0012596.0050398-.0025199.0062994s-.0050398.0025199-.0075589.0025199c-.0025199,0-.0050398,0-.0062994-.0012596s-.0025199-.0025199-.0037795-.0050398l-.1285074-.3174887.0075597.0037795ZM9.8186292,10.3956521l.0062994-.0201581h.1600043l.0050398.0201581h-.1713435ZM10.4158103,10.1575358c.0025199,0,.0050398.00126.0062994.0025199s.0025199.0037795.0025199.0062994v.3250476c0,.0037795-.0012596.0062994-.0037795.0088193-.0025199.0012596-.0037795.0025199-.0062994.0025199-.0012596,0-.0025199,0-.0050398-.0012596-.0012596-.0012596-.0025199-.0012596-.0037795-.0025199l-.2280371-.3124489.0062994-.0037795v.3111893c0,.0025199-.0012596.0037795-.0025199.0062994-.0012596.0012596-.0037795.0025199-.0062994.0025199s-.0050398-.0012596-.0062994-.0025199c-.0012596-.0012596-.0025199-.0037795-.0025199-.0062994v-.3263076c0-.0037795.0012596-.0062994.0025199-.0075593.0025199-.00126.0037795-.0025199.0062994-.0025199.0012596,0,.0025199,0,.0037795.00126.0012596,0,.0025199.00126.0037795.0025199l.2280371.3099293-.0037795.0100788v-.3137088c0-.0025199.0012596-.0050394.0025199-.0062994.0025191-.0025207.005039-.0037806.0062994-.0037806ZM10.8781839,10.3301388c0,.0264575-.0037795.050395-.0125988.071813-.0075589.021418-.0188981.0403162-.0340168.0566944s-.0327564.0277174-.0516546.0365367c-.0201577.0088193-.0415757.0125988-.0655137.0125988s-.0453552-.0037795-.0655137-.0125988c-.0201577-.0088193-.0377963-.0201577-.0516546-.0365367-.0151187-.0163782-.0264571-.0340168-.0340168-.0566944-.0075589-.021418-.0113392-.0453556-.0113392-.071813s.0037795-.050395.0113392-.071813c.0088193-.021418.0201577-.0403162.0340168-.0566944.0151187-.0163782.0327564-.0277174.0516546-.0365363.0201577-.0088193.0415757-.0125988.0655137-.0125988s.0453552.0037795.0655137.0125988c.0201577.0088193.0377963.0201581.0516546.0365363.0151187.0163782.0264571.0340168.0340168.0566944.0075597.021418.0125988.0453556.0125988.071813ZM10.8567666,10.3301388c0-.0314969-.0062994-.0592143-.0188981-.0831518s-.028977-.0415757-.050395-.0554344c-.021418-.0125988-.0466155-.0201581-.0743329-.0201581s-.0529149.0062994-.0743329.0201581c-.021418.0125988-.0390558.0314969-.0516546.0554344s-.0176386.051655-.0176386.0831518.0062994.0592143.0176386.0831518c.0125988.0239375.028977.0415761.0516546.0554344.021418.0125988.0466155.0201577.0743329.0201577s.0529149-.0062994.0743329-.0201577c.021418-.0125988.0390558-.0314969.050395-.0554344.0125988-.0239379.0188981-.051655.0188981-.0831518ZM11.244808,10.1575358c.0025199,0,.0050398.00126.0062994.0025199.0025199.0025199.0025199.0037795.0025199.0062994v.2129188c0,.0239375-.0062994.0440956-.0176386.0642537-.0113392.0188981-.0264571.0340168-.0453552.0453552-.0188981.0113392-.0403162.0176386-.0629938.0176386s-.0440956-.0062994-.0642533-.0176386c-.0188981-.0113392-.0340168-.0264571-.0453552-.0453552-.0113392-.0188981-.0176386-.0403162-.0176386-.0642537v-.2129188c0-.0025199.0012596-.0050394.0025199-.0062994.0025199-.0025199.0050398-.0025199.0075589-.0025199.0025199,0,.0050398.00126.0075589.0025199.0025199.0025199.0025199.0037795.0025199.0062994v.2129188c0,.0201581.0050398.0377963.0138583.0541745.0100788.0163786.0226776.0289774.0390558.0390562s.0340168.0138583.0541745.0138583.0377963-.0050398.0541745-.0138583c.0163782-.0100788.028977-.0226776.0377963-.0390562.0100788-.0163782.0151187-.0340168.0151187-.0541745v-.2129188c0-.0025199.0012596-.0050394.0025199-.0062994.0025199-.00126.0037802-.0025199.0075597-.0025199ZM11.4879637,10.5077809c-.0251975,0-.0478751-.0037795-.0655137-.0125988-.0188981-.0088193-.0365367-.021418-.0529149-.0390558l-.0025199-.0025199c-.0012596-.0012596-.0012596-.0025199-.0012596-.0050398s.0012596-.0050398.0037795-.0075593c.0025199-.0025199.0050398-.0037795.0075589-.0037795.0025199,0,.0062994.00126.0088193.0050394.0125988.0151187.028977.0264571.0453552.0340168.0176386.0075589.0365367.0113392.0554348.0113392.0163782,0,.0314969-.0025199.0453552-.0075589.0125988-.0050398.0239379-.0138583.0314969-.0226776.0075589-.0100788.0113392-.021418.0113392-.0352763,0-.0163782-.0050398-.0302369-.0138583-.0403162-.0088193-.0100788-.0201577-.0188981-.0340168-.0251975-.0138583-.0062994-.028977-.0125988-.0440956-.0176382-.0125988-.0050394-.0239379-.0088193-.0365367-.0138587s-.0226776-.0113388-.0314969-.0176382c-.0100788-.0075593-.0176386-.0163782-.0226776-.0264575-.0050398-.0113388-.0088193-.0239375-.0088193-.0403162,0-.0163782.0037795-.0302369.0125988-.0428357s.021418-.0239375.0377963-.0314969.0352763-.0113388.0579539-.0113388c.0188981,0,.0365367.0037795.0541745.0100788.0176386.0062994.0314969.0163782.0415757.0302369.0037795.0050394.0050398.0075593.0050398.0100788,0,.0025199-.0012596.0050394-.0037795.0062994-.0025199.0025199-.0050398.0037795-.0075589.0037795-.0025199,0-.0050398-.00126-.0062994-.0025199-.0062994-.0075593-.0125988-.0151187-.021418-.0201581-.0088193-.0062994-.0176386-.0100788-.0277174-.0138587-.0100788-.0037795-.021418-.0050394-.0340168-.0050394-.0163782,0-.0302373.0025199-.0440956.0075593-.0125988.0050394-.0239379.0125988-.0314969.0226776s-.0113392.021418-.0113392.0352763c0,.0151187.0037795.0277174.0125988.0377963s.0201577.0176382.0340168.0239375c.0138583.0062994.0277174.0125988.0415757.0176382.0125988.0037795.0251975.0088193.0365367.0138587.0125988.0050394.0239379.0113388.0340168.0188981s.0176386.0176382.0239379.028977.0088193.0264575.0088193.0428357c0,.0151187-.0050398.0289774-.0138583.0415761-.0088193.0125988-.0201577.0226776-.0365367.0314969-.0176378.0063001-.0365359.0100796-.0579539.0113392ZM11.72734,10.1575358c.0025199,0,.0050398.00126.0075589.0025199.0025199.0025199.0025199.0050394.0025199.0075593v.3237877c0,.0025199-.0012596.0050398-.0037795.0075589-.0025199.0025199-.0037795.0025199-.0062994.0025199-.0037795,0-.0062994-.0012596-.0075589-.0025199-.0012596-.0025199-.0025199-.0050398-.0025199-.0075589v-.323788c0-.0025199.0012596-.0050394.0025199-.0075593.0025191-.0012596.005039-.0025195.0075589-.0025195ZM11.9629368,10.1575358c.0025199,0,.0050398.00126.0075589.0025199.0025199.0025199.0025199.0050394.0025199.0075593v.3237877c0,.0025199-.0012596.0050398-.0037795.0075589-.0025199.0025199-.0037795.0025199-.0062994.0025199-.0037795,0-.0062994-.0012596-.0075589-.0025199-.0012596-.0025199-.0025199-.0050398-.0025199-.0075589v-.323788c0-.0025199.0012596-.0050394.0025199-.0075593.0025191-.0012596.005039-.0025195.0075589-.0025195ZM11.7248201,10.3150202h.2393763l-.0012596.0201581h-.2406358l.0025191-.0201581Z"/>
    <rect x="1.1708467" y="10.3150202" width="7.0452213" height=".0201581"/>
    <g id="_Layer_" data-name="&amp;lt;Layer&amp;gt;">
      <path d="M14.6326116,5.5841892v1.7902826c0,.050395-.0415765.0919707-.0919715.0919707h-1.5395667c-.050395,0-.0919707-.0415757-.0919707-.0919707v-1.7902826c0-.050395-.0415757-.0919709-.0919707-.0919709h-.0125988c-.050395,0-.0919707.0415759-.0919707.0919709v3.9786854c0,.050395.0415757.0919707.0919707.0919707h.0125988c.050395,0,.0919707-.0415757.0919707-.0919707v-1.8192595c0-.050395.0415757-.0919707.0919707-.0919707h1.5395667c.050395,0,.0919715.0415757.0919715.0919707v1.8192595c0,.050395.0415765.0919707.0919715.0919707h.0125988c.050395,0,.0919715-.0415757.0919715-.0919707v-3.9786854c0-.050395-.0415765-.0919709-.0919715-.0919709h-.0125988c-.050395,0-.0919715.0415759-.0919715.0919709Z"/>
    </g>
  </g>
</svg>