<svg xmlns="http://www.w3.org/2000/svg" width="65" height="63" viewBox="0 0 65 63" fill="none">
  <path d="M36.3999 22.2C35.4999 20.7 33.9999 19.8 32.2999 19.8C30.5999 19.8 29.0999 20.7 28.1999 22.2L20.1999 36C19.2999 37.5 19.2999 39.2 20.1999 40.8C21.0999 42.3 22.5999 43.2 24.2999 43.2H40.1999C41.8999 43.2 43.3999 42.3 44.2999 40.8C45.1999 39.3 45.1999 37.6 44.2999 36L36.3999 22.2ZM39.5999 38C39.4999 38.2 39.2999 38.3 38.9999 38.3H32.1999H25.3999C25.0999 38.3 24.8999 38.2 24.7999 38C24.6999 37.8 24.6999 37.5 24.7999 37.3L28.1999 31.4L31.5999 25.5C31.6999 25.3 31.8999 25.2 32.1999 25.2C32.4999 25.2 32.6999 25.3 32.7999 25.5L36.1999 31.4L39.5999 37.3C39.6999 37.5 39.6999 37.8 39.5999 38Z" fill="#FD7E13"/>
  <path d="M44.6 17.5C42 13 37.5 10.4 32.3 10.4C27.1 10.4 22.6 13 20 17.5L12 31.2C9.40005 35.7 9.40005 40.9 12 45.5C14.6 50 19.1 52.6 24.3 52.6H40.2001C45.4001 52.6 49.9 50 52.5 45.5C55.1 41 55.1 35.8 52.5 31.2L44.6 17.5ZM48.4001 43.1C46.7001 46.1 43.7001 47.9 40.2001 47.9H24.3C20.8 47.9 17.8 46.2 16.1 43.1C14.4 40 14.4 36.6 16.1 33.6L24 19.8C25.7 16.8 28.7001 15 32.2001 15C35.7001 15 38.7001 16.7 40.4001 19.8L48.3 33.5C50.2 36.6 50.2001 40.1 48.4001 43.1Z" fill="#FD7E13"/>
  <path d="M52.7999 12.7C48.4999 5.09999 40.9999 0.799988 32.1999 0.799988C23.4999 0.799988 15.9999 5.09999 11.5999 12.7L3.6999 26.4C-0.700098 34 -0.700098 42.6 3.6999 50.2C8.0999 57.8 15.5999 62.1 24.2999 62.1H40.1999C48.8999 62.1 56.3999 57.8 60.7999 50.2C65.1999 42.6 65.1999 34 60.7999 26.4L52.7999 12.7ZM56.5999 47.8C53.0999 53.8 47.0999 57.3 40.0999 57.3H24.2999C17.2999 57.3 11.2999 53.8 7.7999 47.8C4.2999 41.8 4.2999 34.8 7.7999 28.8L15.6999 15.1C19.1999 9.09999 25.1999 5.59999 32.1999 5.59999C39.1999 5.59999 45.1999 9.09999 48.6999 15.1L56.5999 28.8C60.0999 34.9 60.0999 41.8 56.5999 47.8Z" fill="#FD7E13"/>
</svg>

