<svg xmlns="http://www.w3.org/2000/svg" width="800" height="494" viewBox="0 0 800 494" fill="none">
  <path d="M507.651 52.8232H291.556V441.108H507.651V52.8232Z" fill="#FF5F00"/>
  <path d="M305.277 246.965C305.277 168.074 342.321 98.1001 399.261 52.8231C357.414 19.8944 304.591 0 246.965 0C110.448 0 0 110.448 0 246.965C0 383.482 110.448 493.931 246.965 493.931C304.591 493.931 357.414 474.036 399.261 441.108C342.321 396.517 305.277 325.857 305.277 246.965Z" fill="#EB001B"/>
  <path d="M799.207 246.965C799.207 383.482 688.759 493.931 552.242 493.931C494.617 493.931 441.794 474.036 399.947 441.107C457.572 395.831 493.931 325.857 493.931 246.965C493.931 168.074 456.886 98.1001 399.947 52.8231C441.794 19.8944 494.617 -6.10352e-05 552.242 -6.10352e-05C688.759 -6.10352e-05 799.207 111.134 799.207 246.965Z" fill="#F79E1B"/>
</svg>

