<svg xmlns="http://www.w3.org/2000/svg" width="674" height="220" viewBox="0 0 674 220" fill="none">
  <path d="M292.234 215.58H237.296L271.632 4.56721H326.575L292.234 215.58ZM191.08 4.56721L138.705 149.703L132.507 118.45L132.513 118.461L114.027 23.5665C114.027 23.5665 111.792 4.56721 87.9666 4.56721H1.38063L0.364624 8.14015C0.364624 8.14015 26.8428 13.6491 57.8308 32.2589L105.56 215.585H162.801L250.205 4.56721H191.08ZM623.191 215.58H673.635L629.654 4.56157H585.492C565.098 4.56157 560.131 20.287 560.131 20.287L478.196 215.58H535.465L546.917 184.236H616.756L623.191 215.58ZM562.739 140.937L591.604 61.9713L607.844 140.937H562.739ZM482.491 55.3109L490.332 9.99717C490.332 9.99717 466.139 0.796722 440.92 0.796722C413.657 0.796722 348.915 12.7122 348.915 70.6525C348.915 125.167 424.901 125.844 424.901 154.478C424.901 183.113 356.744 177.982 334.251 159.925L326.084 207.305C326.084 207.305 350.614 219.22 388.094 219.22C425.584 219.22 482.142 199.809 482.142 146.977C482.142 92.1127 405.473 87.0045 405.473 63.151C405.479 39.2919 458.982 42.3568 482.491 55.3109Z" fill="#2566AF"/>
  <path d="M132.513 118.455L114.027 23.5608C114.027 23.5608 111.792 4.56155 87.9666 4.56155H1.38063L0.364624 8.13449C0.364624 8.13449 41.9812 16.7592 81.8988 49.0737C120.067 79.9602 132.513 118.455 132.513 118.455Z" fill="#E6A540"/>
</svg>

